<svg width="467" height="388" viewBox="0 0 467 388" fill="none" xmlns="http://www.w3.org/2000/svg">
<g clip-path="url(#clip0_43_9663)">
<path d="M74.6776 259.149C74.6776 259.149 74.9373 247.439 72.3301 246.66C69.723 245.881 56.7072 246.4 60.0935 238.075C63.4798 229.749 73.6287 235.469 73.6287 235.469C73.6287 235.469 67.905 220.634 74.9273 217.52C81.9596 214.395 87.4037 223.699 88.7222 232.744C90.0907 242.108 89.891 244.643 89.891 244.643C89.891 244.643 95.4849 241.199 98.3517 241.718C101.219 242.237 104.075 249.006 101.738 250.823C99.3906 252.64 90.0208 255.505 90.0208 255.505V259.149H74.6576H74.6776Z" fill="#17CEC9"/>
<path d="M82.1403 258.53C82.2203 257.712 82.2402 256.883 82.2003 256.065C81.8307 248.478 77.9449 230.728 76.8361 224.987C76.2368 221.883 78.1247 219.926 79.9827 218.768C78.6242 218.329 77.1558 218.369 75.5975 219.068C68.9348 222.023 74.9382 236.957 74.9382 236.957C74.9382 236.957 63.9602 230.368 60.7537 238.255C57.5472 246.151 70.6629 245.942 73.1302 246.681C75.5975 247.419 75.3478 258.52 75.3478 258.52H82.1303L82.1403 258.53Z" fill="#19B2AA"/>
<path d="M90.5409 259.648H74.1688V259.139C74.2887 254.437 73.7393 247.599 72.191 247.14C71.7414 247 70.8624 246.9 69.8535 246.78C66.4772 246.391 61.3828 245.792 59.6347 242.837C58.8455 241.499 58.8355 239.832 59.6347 237.885C60.5437 235.659 62.0021 234.172 63.9699 233.493C67.1964 232.365 70.9223 233.672 72.7603 234.491C71.5417 230.837 68.485 219.846 74.7382 217.071C76.8958 216.112 79.0235 216.192 81.0413 217.31C85.5064 219.776 88.3733 226.804 89.2323 232.674C90.1813 239.153 90.3811 242.378 90.4111 243.775C92.0792 242.837 96.0649 240.8 98.4523 241.23C100.45 241.589 102.268 244.394 102.887 246.89C103.367 248.857 103.067 250.434 102.058 251.223C99.9007 252.9 92.299 255.326 90.5409 255.875V259.648ZM75.1877 258.65H89.542V255.136L89.8916 255.026C89.9815 254.996 99.2015 252.171 101.449 250.424C102.128 249.895 102.298 248.657 101.918 247.12C101.329 244.704 99.661 242.458 98.2825 242.208C96.0849 241.809 91.6897 244.135 90.1713 245.073L89.3422 245.582L89.4122 244.614C89.4122 244.614 89.582 241.968 88.2434 232.824C87.2545 226.055 84.1679 220.175 80.5618 218.189C78.8237 217.23 77.0057 217.161 75.1477 217.989C68.6348 220.884 74.0589 235.16 74.1089 235.31L74.6083 236.607L73.3996 235.929C73.3497 235.899 68.2553 233.083 64.2996 234.451C62.6114 235.04 61.3628 236.328 60.5637 238.285C59.8844 239.952 59.8644 241.28 60.5037 242.358C62.0021 244.883 66.7968 245.442 69.9734 245.812C71.0722 245.942 71.9412 246.041 72.4806 246.201C75.1178 246.99 75.2176 255.845 75.1877 258.67V258.65Z" fill="#4F454D"/>
<path d="M80.0133 224.358C79.9034 224.358 79.8035 224.318 79.7136 224.259C79.6037 224.179 79.5338 224.049 79.5138 223.919L79.2041 221.144C79.1742 220.874 79.374 220.625 79.6437 220.595C79.9234 220.565 80.1631 220.764 80.1931 221.034L80.4428 223.29L82.5505 222.941C82.8202 222.891 83.0799 223.081 83.1299 223.35C83.1798 223.62 82.99 223.879 82.7203 223.929L80.0932 224.368C80.0932 224.368 80.0432 224.368 80.0133 224.368V224.358Z" fill="#4F454D"/>
<path d="M86.1257 242.298C86.1257 242.298 86.0558 242.298 86.0258 242.298L83.4087 241.768C83.2788 241.739 83.159 241.659 83.089 241.539C83.0191 241.419 82.9991 241.279 83.0291 241.15L83.7383 238.444C83.8083 238.175 84.078 238.015 84.3477 238.085C84.6174 238.155 84.7772 238.424 84.7073 238.694L84.1379 240.89L86.2356 241.319C86.5053 241.379 86.6851 241.639 86.6252 241.908C86.5752 242.148 86.3655 242.308 86.1357 242.308L86.1257 242.298Z" fill="#4F454D"/>
<path d="M86.0252 254.258C85.9253 254.258 85.8154 254.228 85.7355 254.168L83.468 252.541C83.2482 252.381 83.1883 252.071 83.3481 251.842C83.5079 251.612 83.8176 251.562 84.0473 251.722L85.8953 253.04L87.0441 251.233C87.1939 251.003 87.5036 250.933 87.7333 251.083C87.9631 251.233 88.033 251.542 87.8832 251.772L86.4547 254.018C86.3848 254.138 86.2649 254.218 86.1251 254.238C86.0951 254.238 86.0651 254.238 86.0252 254.238V254.258Z" fill="#4F454D"/>
<path d="M83.9878 220.535C83.8979 220.535 83.808 220.515 83.7381 220.465C83.6182 220.396 83.5383 220.276 83.5083 220.146L82.889 217.421C82.8291 217.151 82.9989 216.881 83.2686 216.822C83.5383 216.762 83.808 216.931 83.8679 217.201L84.3774 219.407L86.4351 218.818C86.7048 218.738 86.9745 218.898 87.0544 219.158C87.1343 219.427 86.9745 219.697 86.7148 219.777L84.1476 220.515C84.1476 220.515 84.0577 220.535 84.0078 220.535H83.9878Z" fill="#4F454D"/>
<path d="M95.076 242.607C95.076 242.607 95.0661 242.607 95.0561 242.607L92.2591 242.487C91.9794 242.477 91.7697 242.238 91.7796 241.968C91.7896 241.688 92.0593 241.469 92.2991 241.489L94.5666 241.589L94.5466 239.452C94.5466 239.173 94.7664 238.953 95.0361 238.953C95.3058 238.953 95.5355 239.173 95.5355 239.452L95.5655 242.118C95.5655 242.258 95.5156 242.387 95.4157 242.477C95.3258 242.567 95.1959 242.617 95.0661 242.617L95.076 242.607Z" fill="#4F454D"/>
<path d="M94.8959 252.41C94.8959 252.41 94.8459 252.41 94.816 252.41C94.5463 252.37 94.3565 252.111 94.4064 251.841L94.826 249.206C94.846 249.066 94.9259 248.946 95.0357 248.876C95.1456 248.796 95.2855 248.776 95.4253 248.796L98.1523 249.385C98.422 249.445 98.5919 249.715 98.5319 249.974C98.472 250.244 98.2123 250.414 97.9326 250.354L95.715 249.874L95.3754 251.981C95.3354 252.23 95.1256 252.4 94.8859 252.4L94.8959 252.41Z" fill="#4F454D"/>
<path d="M99.3604 247.719C99.2305 247.719 99.1007 247.669 99.0008 247.569L97.1528 245.652C97.0529 245.553 97.003 245.423 97.013 245.283C97.013 245.143 97.0829 245.014 97.1828 244.924L99.3005 243.097C99.5102 242.917 99.8199 242.937 100.01 243.147C100.19 243.356 100.17 243.666 99.9598 243.846L98.2416 245.323L99.73 246.86C99.9198 247.06 99.9198 247.38 99.72 247.569C99.6201 247.659 99.5003 247.709 99.3704 247.709L99.3604 247.719Z" fill="#4F454D"/>
<path d="M68.1558 241.848C68.0559 241.848 67.966 241.818 67.8761 241.758C67.6463 241.599 67.5864 241.289 67.7462 241.07L69.0148 239.193L67.1768 238.095C66.9371 237.955 66.8672 237.645 67.007 237.406C67.1469 237.176 67.4565 237.096 67.6963 237.236L69.9838 238.614C70.1036 238.684 70.1836 238.803 70.2135 238.933C70.2435 239.063 70.2135 239.203 70.1436 239.323L68.5753 241.639C68.4754 241.778 68.3256 241.858 68.1658 241.858L68.1558 241.848Z" fill="#4F454D"/>
<path d="M82.2692 233.333C82.1993 233.333 82.1193 233.313 82.0494 233.283C81.9296 233.223 81.8297 233.113 81.7897 232.983L80.9306 230.328C80.8507 230.068 80.9906 229.789 81.2503 229.699C81.51 229.609 81.7897 229.759 81.8796 230.019L82.5788 232.175L84.5767 231.406C84.8364 231.306 85.1261 231.436 85.226 231.696C85.3258 231.955 85.196 232.245 84.9363 232.345L82.449 233.303C82.3891 233.323 82.3291 233.333 82.2692 233.333Z" fill="#4F454D"/>
<path d="M94.2166 283.478H65.0584L61.9219 260.507H97.3532L94.2166 283.478Z" fill="#9A54A8"/>
<path d="M94.6569 283.977H64.6297L61.3633 260.008H97.9333L94.6669 283.977H94.6569ZM65.4988 282.979H93.7879L96.7846 261.006H62.502L65.4988 282.979Z" fill="#4F454D"/>
<path d="M62.5625 261.386L62.7922 265C65.2296 264.201 67.8867 263.752 70.6736 263.752C82.3809 263.752 91.1113 268.943 91.1113 278.547C91.1113 279.245 91.0514 279.934 90.9515 280.613L89.7928 282.39H93.6985L96.7252 261.386H62.5625Z" fill="#B472C4"/>
<path d="M77.7061 260.776H76.9961V283.478H77.7061V260.776Z" fill="#4F454D"/>
<path d="M72.0475 261.02L71.3379 261.045L72.1265 283.503L72.8361 283.478L72.0475 261.02Z" fill="#4F454D"/>
<path d="M66.9487 260.758L66.2402 260.806L67.756 283.507L68.4644 283.459L66.9487 260.758Z" fill="#4F454D"/>
<path d="M82.8506 260.776H82.1406V283.478H82.8506V260.776Z" fill="#4F454D"/>
<path d="M87.7946 261.033L86.9902 283.49L87.6998 283.516L88.5041 261.058L87.7946 261.033Z" fill="#4F454D"/>
<path d="M92.866 260.752L91.3691 283.454L92.0776 283.501L93.5745 260.799L92.866 260.752Z" fill="#4F454D"/>
<path d="M98.5033 260.288C98.5532 259.569 97.9739 258.96 97.2547 258.96H62.0231C61.3039 258.96 60.7245 259.569 60.7745 260.288C60.8144 260.947 61.3638 261.456 62.0231 261.456H97.2547C97.9139 261.456 98.4633 260.947 98.5033 260.288Z" fill="#EDEBED"/>
<path d="M97.2545 261.965H62.023C61.104 261.965 60.3348 261.246 60.2749 260.328C60.2449 259.848 60.4147 259.369 60.7444 259.02C61.074 258.67 61.5435 258.471 62.023 258.471H97.2545C97.734 258.471 98.2034 258.67 98.5331 259.02C98.8627 259.369 99.0325 259.848 99.0026 260.328C98.9426 261.246 98.1735 261.965 97.2545 261.965ZM62.023 259.459C61.8132 259.459 61.6134 259.549 61.4736 259.699C61.3337 259.848 61.2538 260.048 61.2738 260.258C61.3037 260.657 61.6334 260.966 62.023 260.966H97.2545C97.6541 260.966 97.9837 260.657 98.0037 260.258C98.0137 260.048 97.9437 259.848 97.8039 259.699C97.664 259.549 97.4643 259.459 97.2545 259.459H62.023Z" fill="#4F454D"/>
<path d="M388.895 282.869H351.595L347.59 219.906H392.9L388.895 282.869Z" fill="#1075B2"/>
<path d="M360.117 250.474C360.117 252.62 361.336 254.587 363.254 255.546L370.246 259.03V234.362L360.117 241.929V250.484V250.474ZM368.438 237.965V243.586L365.441 240.202L368.438 237.965ZM361.935 242.827L363.993 241.29L368.408 246.281L368.448 246.251V250.544L361.945 245.752V242.837L361.935 242.827ZM361.935 247.988L368.438 252.78V256.095L365.072 254.417C363.144 253.459 361.935 251.492 361.935 249.346V247.978V247.988ZM371.065 234.352V259.02L377.418 255.585C379.246 254.597 380.385 252.68 380.385 250.604V241.919L371.065 234.352Z" fill="#17CEC9"/>
<path d="M389.755 199.761H350.747L346.932 210.003H393.571L389.755 199.761Z" fill="#4F454D"/>
<path d="M354.493 201.757H390.494L389.755 199.761H350.747L346.932 210.003H351.417L354.493 201.757Z" fill="#6D6D6D"/>
<path d="M348.398 221.025L348.688 225.647C351.805 224.619 355.201 224.049 358.767 224.049C373.741 224.049 385.877 234.003 385.877 246.282C385.877 247.18 385.808 248.059 385.678 248.927L383.22 281.741H388.225L392.091 221.015H348.398V221.025Z" fill="#126A96"/>
<path d="M397.376 207.587H343.105V218.898H397.376V207.587Z" fill="#EDEBED"/>
<path d="M397.376 213.277H343.105V218.898H397.376V213.277Z" fill="#EDEBED"/>
<path d="M396.767 208.196H375.75V212.669H396.767V208.196Z" fill="#D6D6D6"/>
<path d="M396.767 213.856H375.75V218.319H396.767V213.856Z" fill="#D6D6D6"/>
<path d="M389.405 283.408H351.097L347.021 219.357H393.491L389.415 283.408H389.405ZM352.116 282.32H388.386L392.322 220.436H348.17L352.116 282.32Z" fill="#4F454D"/>
<path d="M342.605 207.088V219.397H397.875V207.088H342.605ZM396.876 218.399H343.604V213.777H396.876V218.399ZM343.604 212.778V208.086H396.876V212.778H343.604Z" fill="#4F454D"/>
<path d="M368.058 193.95C368.058 193.95 376.549 177.478 360.067 173.485C343.585 169.492 343.585 149.027 363.064 144.035C382.542 139.044 393.53 126.066 378.547 122.073C363.563 118.079 365.062 129.56 372.054 129.56C372.054 129.56 376.05 137.047 361.565 136.049C347.081 135.051 347.081 123.071 370.556 117.081C394.03 111.091 392.032 143.536 375.55 156.015C359.068 168.494 373.053 177.159 373.053 183.468C373.053 192.453 368.058 193.95 368.058 193.95Z" fill="#D6D6D6"/>
<path d="M266.368 276.379H185.057V283.796H266.368V276.379Z" fill="#EDEBED"/>
<path d="M266.867 284.305H184.557V275.89H266.867V284.305ZM185.556 283.307H265.868V276.888H185.556V283.307Z" fill="#4F454D"/>
<path d="M257.837 264.439V245.352H193.578V264.439C193.578 268.153 187.814 273.913 185.047 276.389H266.358C263.591 273.913 257.827 268.153 257.827 264.439H257.837Z" fill="#EDEBED"/>
<path d="M267.676 276.878H183.748L184.717 276.01C188.763 272.396 193.078 267.454 193.078 264.429V244.843H258.337V264.429C258.337 267.444 262.652 272.386 266.697 276.01L267.666 276.878H267.676ZM186.335 275.88H265.079C262.442 273.404 257.338 268.123 257.338 264.429V245.841H194.077V264.429C194.077 268.123 188.972 273.404 186.335 275.88Z" fill="#4F454D"/>
<path d="M257.257 245.352H194.156V261.993H257.257V245.352Z" fill="#D6D6D6"/>
<path d="M125.543 249.365C125.543 252.929 128.43 255.814 131.996 255.814H319.431C322.997 255.814 325.884 252.929 325.884 249.365V227.223H125.543V249.365Z" fill="#EDEBED"/>
<path d="M230.069 238.903C230.339 239.991 230.069 241.199 229.21 242.047C227.911 243.345 225.814 243.345 224.515 242.047C223.216 240.75 223.216 238.653 224.515 237.355C225.374 236.497 226.573 236.217 227.662 236.497L228.541 235.618C226.273 234.39 223.366 234.73 221.448 236.647C219.111 238.983 219.111 242.776 221.448 245.122C223.786 247.458 227.582 247.458 229.929 245.122C231.847 243.205 232.187 240.3 230.958 238.034L230.079 238.913L230.069 238.903Z" fill="#4F454D"/>
<path d="M319.431 256.313H131.995C128.16 256.313 125.043 253.199 125.043 249.365V226.724H326.373V249.365C326.373 253.199 323.256 256.313 319.421 256.313H319.431ZM126.052 227.722V249.365C126.052 252.64 128.719 255.315 132.005 255.315H319.441C322.727 255.315 325.394 252.65 325.394 249.365V227.722H126.042H126.052Z" fill="#4F454D"/>
<path d="M319.431 126.085H131.996C128.43 126.085 125.543 128.97 125.543 132.534V227.223H325.874V132.534C325.874 128.97 322.987 126.085 319.421 126.085H319.431Z" fill="#4B8BE8"/>
<path d="M326.383 227.722H125.043V132.534C125.043 128.701 128.16 125.586 131.995 125.586H319.431C323.266 125.586 326.383 128.701 326.383 132.534V227.722ZM126.052 226.724H325.384V132.534C325.384 129.26 322.717 126.584 319.431 126.584H131.995C128.719 126.584 126.042 129.25 126.042 132.534V226.724H126.052Z" fill="#4F454D"/>
<path d="M293.409 147.688H143.973V221.094H293.409V147.688Z" fill="#4F454D"/>
<path d="M293.409 132.045H143.973V146.261H293.409V132.045Z" fill="#4F454D"/>
<path d="M177.397 140.79L176.818 142.856H174.93L177.397 134.79H179.794L182.302 142.856H180.334L179.714 140.79H177.407H177.397ZM179.445 139.422L178.945 137.705C178.805 137.226 178.656 136.627 178.536 136.148H178.516C178.396 136.627 178.276 137.236 178.146 137.705L177.667 139.422H179.455H179.445Z" fill="#F99608"/>
<path d="M185.129 135.379C185.129 135.879 184.75 136.288 184.15 136.288C183.551 136.288 183.191 135.879 183.201 135.379C183.191 134.85 183.571 134.461 184.16 134.461C184.75 134.461 185.119 134.86 185.129 135.379ZM183.251 142.867V137.017H185.069V142.867H183.251Z" fill="#F99608"/>
<path d="M151.466 135.838C149.907 135.838 148.639 137.106 148.639 138.663C148.639 140.22 149.907 141.488 151.466 141.488C153.024 141.488 154.293 140.22 154.293 138.663C154.293 137.106 153.024 135.838 151.466 135.838ZM159.956 135.838C158.398 135.838 157.129 137.106 157.129 138.663C157.129 140.22 158.398 141.488 159.956 141.488C161.515 141.488 162.783 140.22 162.783 138.663C162.783 137.106 161.515 135.838 159.956 135.838ZM168.447 135.838C166.889 135.838 165.62 137.106 165.62 138.663C165.62 140.22 166.889 141.488 168.447 141.488C170.005 141.488 171.274 140.22 171.274 138.663C171.274 137.106 170.005 135.838 168.447 135.838Z" fill="#EDEBED"/>
<path d="M168.446 141.988C166.609 141.988 165.12 140.49 165.12 138.663C165.12 136.836 166.618 135.339 168.446 135.339C170.274 135.339 171.773 136.836 171.773 138.663C171.773 140.49 170.274 141.988 168.446 141.988ZM168.446 136.327C167.158 136.327 166.119 137.375 166.119 138.653C166.119 139.931 167.168 140.979 168.446 140.979C169.725 140.979 170.774 139.931 170.774 138.653C170.774 137.375 169.725 136.327 168.446 136.327ZM159.956 141.988C158.118 141.988 156.629 140.49 156.629 138.663C156.629 136.836 158.128 135.339 159.956 135.339C161.784 135.339 163.282 136.836 163.282 138.663C163.282 140.49 161.784 141.988 159.956 141.988ZM159.956 136.327C158.667 136.327 157.628 137.375 157.628 138.653C157.628 139.931 158.677 140.979 159.956 140.979C161.234 140.979 162.283 139.931 162.283 138.653C162.283 137.375 161.234 136.327 159.956 136.327ZM151.465 141.988C149.627 141.988 148.139 140.49 148.139 138.663C148.139 136.836 149.637 135.339 151.465 135.339C153.293 135.339 154.791 136.836 154.791 138.663C154.791 140.49 153.293 141.988 151.465 141.988ZM151.465 136.327C150.176 136.327 149.138 137.375 149.138 138.653C149.138 139.931 150.186 140.979 151.465 140.979C152.744 140.979 153.793 139.931 153.793 138.653C153.793 137.375 152.744 136.327 151.465 136.327Z" fill="#685E66"/>
<path d="M151.464 137.835C151.004 137.835 150.635 138.204 150.635 138.664C150.635 139.123 151.004 139.492 151.464 139.492C151.923 139.492 152.293 139.123 152.293 138.664C152.293 138.204 151.923 137.835 151.464 137.835Z" fill="#685E66"/>
<path d="M280.275 150.423H155.451V218.267H280.275V150.423Z" fill="#EDEBED"/>
<path d="M280.774 218.757H154.951V149.914H280.774V218.757ZM155.95 217.759H279.775V150.912H155.95V217.759Z" fill="#4F454D"/>
<path d="M280.275 150.424H155.451V153.668H280.275V150.424Z" fill="#DDD7DD"/>
<path d="M280.774 154.168H154.951V149.925H280.774V154.168ZM155.95 153.169H279.775V150.923H155.95V153.169Z" fill="#4F454D"/>
<path d="M149.507 153.299H139.848V208.874H149.507V153.299Z" fill="#6B6B6B"/>
<path d="M150.006 209.374H139.348V152.8H150.006V209.374ZM140.347 208.375H149.007V153.798H140.347V208.375Z" fill="#4F454D"/>
<path d="M149.587 162.673H139.928V163.671H149.587V162.673Z" fill="#4F454D"/>
<path d="M149.427 171.628H139.768V172.626H149.427V171.628Z" fill="#4F454D"/>
<path d="M149.587 180.593H139.928V181.591H149.587V180.593Z" fill="#4F454D"/>
<path d="M149.587 189.547H139.928V190.545H149.587V189.547Z" fill="#4F454D"/>
<path d="M149.587 198.502H139.928V199.5H149.587V198.502Z" fill="#4F454D"/>
<path d="M303.488 152.68H272.852V223.21H303.488V152.68Z" fill="#6B6B6B"/>
<path d="M303.997 223.729H272.332V152.171H303.997V223.729ZM273.361 222.701H302.969V153.199H273.361V222.701Z" fill="#4F454D"/>
<path d="M299.802 162.833H279.324V163.831H299.802V162.833Z" fill="#4F454D"/>
<path d="M299.462 168.483H278.984V169.482H299.462V168.483Z" fill="#4F454D"/>
<path d="M299.462 174.144H278.984V175.142H299.462V174.144Z" fill="#4F454D"/>
<path d="M303.488 152.68H272.852V158.17H303.488V152.68Z" fill="#6B6B6B"/>
<path d="M303.987 158.67H272.352V152.181H303.987V158.67ZM273.35 157.671H302.988V153.179H273.35V157.671Z" fill="#4F454D"/>
<path d="M303.488 180.972H272.852V186.462H303.488V180.972Z" fill="#6B6B6B"/>
<path d="M303.987 186.962H272.352V180.473H303.987V186.962ZM273.35 185.963H302.988V181.471H273.35V185.963Z" fill="#4F454D"/>
<path d="M283.741 191.204H278.576V196.365H283.741V191.204Z" fill="#6B6B6B"/>
<path d="M284.239 196.855H278.076V190.695H284.239V196.855ZM279.075 195.857H283.241V191.694H279.075V195.857Z" fill="#4F454D"/>
<path d="M282.97 198.472H275.678V205.15H282.97V198.472Z" fill="#EAF467"/>
<path d="M283.51 205.69H275.129V197.923H283.51V205.69ZM276.218 204.601H282.421V199.011H276.218V204.601Z" fill="#4F454D"/>
<path d="M291.819 198.472H284.527V205.15H291.819V198.472Z" fill="#F2B11D"/>
<path d="M292.359 205.69H283.979V197.923H292.359V205.69ZM285.067 204.601H291.271V199.011H285.067V204.601Z" fill="#4F454D"/>
<path d="M300.671 198.472H293.379V205.15H300.671V198.472Z" fill="#EF7E20"/>
<path d="M301.211 205.69H292.83V197.923H301.211V205.69ZM293.919 204.601H300.122V199.011H293.919V204.601Z" fill="#4F454D"/>
<path d="M282.97 206.269H275.678V212.947H282.97V206.269Z" fill="#B72F15"/>
<path d="M283.51 213.487H275.129V205.72H283.51V213.487ZM276.218 212.398H282.421V206.808H276.218V212.398Z" fill="#4F454D"/>
<path d="M291.819 206.269H284.527V212.947H291.819V206.269Z" fill="#F70000"/>
<path d="M292.359 213.487H283.979V205.72H292.359V213.487ZM285.067 212.398H291.271V206.808H285.067V212.398Z" fill="#4F454D"/>
<path d="M300.671 206.269H293.379V212.947H300.671V206.269Z" fill="#C4068E"/>
<path d="M301.211 213.487H292.83V205.72H301.211V213.487ZM293.919 212.398H300.122V206.808H293.919V212.398Z" fill="#4F454D"/>
<path d="M282.97 214.056H275.678V220.734H282.97V214.056Z" fill="#551DBF"/>
<path d="M283.51 221.283H275.129V213.517H283.51V221.283ZM276.218 220.195H282.421V214.605H276.218V220.195Z" fill="#4F454D"/>
<path d="M291.819 214.056H284.527V220.734H291.819V214.056Z" fill="#1075B2"/>
<path d="M292.359 221.283H283.979V213.517H292.359V221.283ZM285.067 220.195H291.271V214.605H285.067V220.195Z" fill="#4F454D"/>
<path d="M300.671 214.056H293.379V220.734H300.671V214.056Z" fill="#17CEC9"/>
<path d="M301.211 221.283H292.83V213.517H301.211V221.283ZM293.919 220.195H300.122V214.605H293.919V220.195Z" fill="#4F454D"/>
<path d="M281.412 188.868H276.248V194.029H281.412V188.868Z" fill="#D19CD3"/>
<path d="M281.911 194.529H275.748V188.369H281.911V194.529ZM276.747 193.53H280.912V189.367H276.747V193.53Z" fill="#4F454D"/>
<path d="M188.564 164.72C178.155 167.335 170.443 176.749 170.443 187.96C170.443 201.188 181.182 211.919 194.417 211.919C207.653 211.919 218.391 201.188 218.391 187.96" fill="#F99608"/>
<path d="M194.417 212.418C180.921 212.418 169.943 201.447 169.943 187.96C169.943 176.719 177.545 166.966 188.443 164.24L188.683 165.209C178.234 167.824 170.942 177.188 170.942 187.96C170.942 200.898 181.471 211.42 194.417 211.42C207.362 211.42 217.891 200.898 217.891 187.96H218.89C218.89 201.447 207.912 212.418 194.417 212.418Z" fill="#4F454D"/>
<path d="M191.24 169.421C192.279 172.336 195.026 180.462 195.536 185.703L201.529 188.199L208.022 183.826L207.153 177.457C207.153 177.457 199.801 173.204 193.818 167.734C193.248 167.215 192.399 167.165 191.79 167.624C191.24 168.033 191.021 168.762 191.25 169.411L191.24 169.421Z" fill="#D3B697"/>
<path d="M201.53 188.708C201.46 188.708 201.4 188.698 201.34 188.668L195.346 186.172C195.177 186.102 195.057 185.943 195.037 185.763C194.537 180.632 191.89 172.745 190.771 169.59C190.462 168.732 190.751 167.784 191.481 167.234C192.28 166.636 193.398 166.695 194.148 167.374C200.021 172.755 207.323 176.998 207.393 177.038C207.523 177.118 207.613 177.247 207.633 177.397L208.502 183.766C208.532 183.956 208.442 184.146 208.282 184.246L201.789 188.618C201.709 188.678 201.61 188.698 201.51 188.698L201.53 188.708ZM196.006 185.364L201.48 187.64L207.493 183.597L206.694 177.777C205.435 177.028 198.872 173.045 193.488 168.113C193.099 167.754 192.509 167.724 192.1 168.033C191.72 168.323 191.57 168.812 191.73 169.251C192.839 172.376 195.446 180.113 196.016 185.364H196.006Z" fill="#4F454D"/>
<path d="M208.833 185.084L202.41 189.387L204.338 193.45L212.15 188.209L208.833 185.084Z" fill="#D3B697"/>
<path d="M204.337 193.949C204.337 193.949 204.247 193.949 204.207 193.929C204.068 193.889 203.948 193.79 203.888 193.66L201.95 189.607C201.84 189.387 201.92 189.117 202.12 188.978L208.553 184.675C208.743 184.545 209.002 184.565 209.172 184.725L212.478 187.84C212.588 187.939 212.648 188.089 212.638 188.239C212.628 188.389 212.548 188.528 212.419 188.608L204.617 193.849C204.537 193.909 204.437 193.929 204.337 193.929V193.949ZM203.039 189.567L204.537 192.711L211.34 188.139L208.773 185.723L203.029 189.567H203.039Z" fill="#4F454D"/>
<path d="M200.911 181.84C200.591 181.84 200.282 181.69 200.092 181.411L191.182 168.552C190.872 168.103 190.982 167.474 191.431 167.165C191.881 166.855 192.51 166.965 192.82 167.414L201.73 180.273C202.04 180.722 201.93 181.351 201.48 181.66C201.31 181.78 201.111 181.84 200.911 181.84Z" fill="#4F454D"/>
<path d="M191.221 167.155C189.293 167.155 187.725 165.588 187.725 163.661C187.725 161.734 189.293 160.167 191.221 160.167C193.149 160.167 194.717 161.734 194.717 163.661C194.717 165.588 193.149 167.155 191.221 167.155ZM191.221 161.165C189.842 161.165 188.724 162.283 188.724 163.661C188.724 165.039 189.842 166.157 191.221 166.157C192.599 166.157 193.718 165.039 193.718 163.661C193.718 162.283 192.599 161.165 191.221 161.165Z" fill="#67BBCE"/>
<path d="M194.427 163.582L194.268 162.593C197.204 162.124 199.921 160.986 202.139 159.299L202.748 160.087C200.411 161.874 197.534 163.082 194.427 163.582Z" fill="#67BBCE"/>
<path d="M188.403 163.631C185.466 163.222 182.689 162.164 180.372 160.576L179.992 160.337L180.532 159.498L180.921 159.748C183.119 161.265 185.746 162.263 188.533 162.643L188.393 163.631H188.403Z" fill="#67BBCE"/>
<path d="M180.762 160.417H175.938V155.595H180.762V160.417ZM176.936 159.418H179.763V156.593H176.936V159.418Z" fill="#67BBCE"/>
<path d="M206.565 160.417H201.74V155.595H206.565V160.417ZM202.739 159.418H205.566V156.593H202.739V159.418Z" fill="#67BBCE"/>
<path d="M238.448 170.819C238.448 170.819 254.431 165.328 256.179 165.827C257.927 166.326 263.671 167.075 263.421 170.32C263.171 173.564 246.939 182.05 246.939 182.05L244.691 190.785C244.691 190.785 235.951 196.026 235.202 195.028C234.453 194.029 233.494 186.832 233.494 186.832C233.494 186.832 229.438 187.78 228.209 187.291C226.731 186.702 224.763 183.377 224.963 181.8C225.103 180.662 228.209 178.556 228.209 178.556L225.382 174.163L222.466 175.062L220.947 172.356L223.634 171.168L221.467 167.574C221.467 167.574 225.962 165.328 226.711 165.328C227.46 165.328 238.448 170.819 238.448 170.819Z" fill="#EDEBED"/>
<path d="M235.512 195.627C235.022 195.627 234.883 195.437 234.803 195.327C234.093 194.389 233.344 189.357 233.074 187.44C231.876 187.69 229.129 188.199 228.02 187.76C226.332 187.081 224.234 183.537 224.464 181.74C224.604 180.652 226.512 179.155 227.521 178.426L225.153 174.762L222.216 175.66L220.229 172.126L222.896 170.948L220.748 167.375L221.227 167.135C222.306 166.596 225.892 164.839 226.691 164.839C227.431 164.839 234.303 168.213 238.469 170.29C241.565 169.231 254.521 164.849 256.299 165.358C256.549 165.428 256.878 165.508 257.268 165.598C259.675 166.147 264.141 167.175 263.901 170.369C263.651 173.644 250.505 180.742 247.349 182.399L245.101 191.114L244.922 191.224C238.828 194.878 236.461 195.636 235.482 195.636L235.512 195.627ZM235.562 194.658C236.481 194.708 240.676 192.602 244.262 190.465L246.51 181.71L246.71 181.61C252.893 178.376 262.762 172.446 262.922 170.28C263.102 167.944 259.176 167.035 257.068 166.556C256.659 166.466 256.309 166.386 256.039 166.306C255.041 166.017 246.39 168.612 238.608 171.288L238.409 171.358L238.219 171.268C234.133 169.231 227.391 165.947 226.671 165.827C226.302 165.847 224.134 166.816 222.166 167.784L224.344 171.408L221.647 172.596L222.696 174.472L225.583 173.584L228.879 178.695L228.479 178.965C227.081 179.923 225.523 181.291 225.443 181.86C225.273 183.208 227.111 186.312 228.38 186.821C229.169 187.141 231.856 186.692 233.364 186.342L233.904 186.213L233.973 186.762C234.353 189.607 235.072 193.83 235.542 194.658H235.562Z" fill="#4F454D"/>
<path d="M229.129 172.985C230.232 172.985 231.126 172.091 231.126 170.989C231.126 169.886 230.232 168.992 229.129 168.992C228.025 168.992 227.131 169.886 227.131 170.989C227.131 172.091 228.025 172.985 229.129 172.985Z" fill="#1075B2"/>
<path d="M262.383 169.611C261.724 168.193 260.345 169.371 259.346 170.569C258.507 171.568 251.525 177.767 247.36 172.985C247.13 172.716 229.629 181.641 229.629 181.641C229.629 181.641 231.497 185.654 233.065 185.344C233.325 185.294 233.255 184.336 237.43 182.16C238.829 181.431 244.243 178.855 245.422 178.666L246.361 180.562C246.361 180.562 257.229 175.182 260.555 172.197C261.764 171.118 262.413 169.671 262.383 169.621V169.611Z" fill="#1075B2"/>
<path d="M228.46 179.305C228.46 179.305 228.88 184.795 233.125 186.373C233.125 186.373 229.069 186.992 228.4 186.662C227.731 186.333 225.533 183.518 225.653 182.13C225.743 181.122 228.46 179.305 228.46 179.305Z" fill="#CAC7D3"/>
<path d="M249.107 169.861C249.107 169.861 249.817 171.887 251.884 171.887C253.613 171.887 257.628 169.262 259.306 166.826C258.247 166.367 256.969 166.157 256.389 165.987C256.389 165.987 254.042 167.634 249.117 169.861H249.107Z" fill="#C5E8EA"/>
<path d="M251.875 172.386C249.487 172.386 248.658 170.12 248.628 170.03L248.479 169.601L248.898 169.412C253.713 167.245 256.07 165.598 256.09 165.588L256.29 165.448L256.52 165.518C256.68 165.568 256.889 165.608 257.129 165.668C257.788 165.818 258.697 166.027 259.506 166.377L260.066 166.616L259.726 167.115C258.038 169.581 253.863 172.396 251.895 172.396L251.875 172.386ZM249.767 170.1C250.067 170.599 250.706 171.388 251.875 171.388C253.283 171.388 256.72 169.232 258.498 167.056C257.938 166.866 257.349 166.736 256.899 166.626C256.739 166.586 256.6 166.556 256.47 166.526C255.83 166.946 253.663 168.323 249.777 170.1H249.767Z" fill="#4F454D"/>
<path d="M232.995 186.881C232.835 185.204 232.985 184.226 233.474 183.797C233.624 183.667 233.784 183.607 233.934 183.587L243.134 179.025C244.003 178.595 244.842 178.226 245.551 178.486C245.791 178.575 246.121 178.785 246.32 179.264L247.399 181.85L246.48 182.229L245.401 179.644C245.331 179.484 245.262 179.434 245.202 179.414C244.842 179.284 244.023 179.684 243.573 179.913L234.104 184.605H234.084C234.004 184.755 233.834 185.284 233.984 186.772L232.985 186.871L232.995 186.881Z" fill="#4F454D"/>
<path d="M235.272 194.299L234.803 193.421L242.574 189.298L244.362 178.945L245.351 179.115L243.473 189.947L235.272 194.299Z" fill="#4F454D"/>
<g opacity="0.5">
<path d="M325.454 133.402V133.163C325.454 129.649 322.607 126.813 319.101 126.813H302.509L202.758 226.504H232.296L325.454 133.402Z" fill="white"/>
<path d="M290.692 126.804H222.416L126.111 223.06V226.504H190.931L290.692 126.804Z" fill="white"/>
</g>
<path d="M126.822 225.885C126.552 225.885 126.322 225.666 126.322 225.386V133.063C126.322 129.14 128.52 126.794 132.206 126.794H305.137C305.407 126.794 305.636 127.014 305.636 127.293C305.636 127.573 305.417 127.792 305.137 127.792H132.206C129.049 127.792 127.311 129.669 127.311 133.073V225.396C127.311 225.666 127.091 225.895 126.812 225.895L126.822 225.885Z" fill="#F7F7F5"/>
<path d="M319.462 127.792H313.298C313.029 127.792 312.799 127.573 312.799 127.293C312.799 127.014 313.019 126.794 313.298 126.794H319.462C319.731 126.794 319.961 127.014 319.961 127.293C319.961 127.573 319.741 127.792 319.462 127.792Z" fill="#F7F7F5"/>
<path opacity="0.4" d="M5.61409 288.319L4.35547 289.577L102.838 388L467 387.61V310.242L444.085 288.319H5.61409Z" fill="url(#paint0_linear_43_9663)"/>
<path d="M443.477 283.128H26.9316V288.449H443.477V283.128Z" fill="#4F454D"/>
<path d="M222.717 274.893H102.848V282.879H222.717V274.893Z" fill="#EDEBED"/>
<path d="M223.216 283.378H102.348V274.394H223.216V283.378ZM103.347 282.38H222.217V275.392H103.347V282.38Z" fill="#4F454D"/>
<path d="M222.717 278.316H102.848V282.879H222.717V278.316Z" fill="#EDEBED"/>
<path d="M223.216 283.378H102.348V277.817H223.216V283.378ZM103.347 282.38H222.217V278.816H103.347V282.38Z" fill="#4F454D"/>
<path d="M375.221 277.199H276.658V282.87H375.221V277.199Z" fill="#EDEBED"/>
<path d="M375.719 283.379H276.158V276.71H375.719V283.379ZM277.157 282.38H374.721V277.708H277.157V282.38Z" fill="#4F454D"/>
<path d="M287.996 277.199H276.658V282.87H287.996V277.199Z" fill="#6D6D6D"/>
<path d="M288.495 283.379H276.158V276.71H288.495V283.379ZM277.157 282.38H287.496V277.708H277.157V282.38Z" fill="#4F454D"/>
<path d="M342.936 277.199H312.639V282.87H342.936V277.199Z" fill="#6D6D6D"/>
<path d="M343.434 283.379H312.139V276.71H343.434V283.379ZM313.138 282.38H342.436V277.708H313.138V282.38Z" fill="#4F454D"/>
<path d="M375.22 277.199H367.578V282.87H375.22V277.199Z" fill="#6D6D6D"/>
<path d="M375.719 283.379H367.078V276.71H375.719V283.379ZM368.077 282.38H374.72V277.708H368.077V282.38Z" fill="#4F454D"/>
<path d="M327.024 264.161H302.381V276.141H327.024V264.161Z" fill="#6D6D6D"/>
<path d="M327.023 276.64H302.38C302.101 276.64 301.881 276.42 301.881 276.141V264.161C301.881 263.882 302.101 263.662 302.38 263.662H327.023C327.303 263.662 327.523 263.882 327.523 264.161V276.141C327.523 276.42 327.303 276.64 327.023 276.64ZM302.88 275.642H326.524V264.66H302.88V275.642Z" fill="#4F454D"/>
<path d="M302.879 264.7V267.695H326.273H326.433V264.7H302.879Z" fill="#8C8C8C"/>
<path d="M321.82 267.655H307.596V272.647H321.82V267.655Z" fill="#6D6D6D"/>
<path d="M322.309 273.146H307.086V267.156H322.309V273.146ZM308.085 272.148H321.31V268.155H308.085V272.148Z" fill="#4F454D"/>
<path d="M296.847 267.655H293.101C291.722 267.655 290.604 268.773 290.604 270.151C290.604 271.529 291.722 272.647 293.101 272.647H296.847V267.655Z" fill="#6D6D6D"/>
<path d="M296.846 273.146H293.1C291.452 273.146 290.104 271.798 290.104 270.151C290.104 268.504 291.452 267.156 293.1 267.156H296.846C297.126 267.156 297.346 267.376 297.346 267.655V272.647C297.346 272.926 297.126 273.146 296.846 273.146ZM293.1 268.155C292.001 268.155 291.102 269.053 291.102 270.151C291.102 271.249 292.001 272.148 293.1 272.148H296.347V268.155H293.1Z" fill="#4F454D"/>
<path d="M297.217 272.717L302.381 276.141V264.161L297.217 267.585V272.717Z" fill="#6D6D6D"/>
<path d="M293.061 268.193C293.061 268.193 293.041 268.193 293.031 268.193C291.742 268.213 291.822 270.21 293.111 270.21H296.297V268.193H293.061Z" fill="#8C8C8C"/>
<path d="M301.872 267.974V265.139L297.746 267.884V269.851L301.672 267.974H301.872Z" fill="#8C8C8C"/>
<path d="M302.381 276.64C302.281 276.64 302.191 276.61 302.101 276.56L296.937 273.136C296.797 273.046 296.717 272.886 296.717 272.716V267.595C296.717 267.425 296.797 267.275 296.937 267.176L302.101 263.751C302.251 263.652 302.451 263.642 302.61 263.732C302.77 263.821 302.87 263.991 302.87 264.171V276.15C302.87 276.33 302.77 276.5 302.61 276.59C302.54 276.63 302.451 276.65 302.371 276.65L302.381 276.64ZM297.716 272.447L301.881 275.212V265.099L297.716 267.864V272.457V272.447Z" fill="#4F454D"/>
<path d="M349.019 264.161H327.023V276.141H349.019V264.161Z" fill="#EDEBED"/>
<path d="M349.518 276.64H326.523V263.662H349.518V276.64ZM327.522 275.642H348.519V264.66H327.522V275.642Z" fill="#4F454D"/>
<path d="M348.48 264.7H327.553V267.695H348.48V264.7Z" fill="white"/>
<path d="M351.916 266.297H353.484C355.612 266.297 357.34 268.024 357.34 270.15C357.34 272.277 355.612 274.004 353.484 274.004H351.916V266.297Z" fill="#6D6D6D"/>
<path d="M353.484 274.503H351.416V265.798H353.484C355.881 265.798 357.839 267.755 357.839 270.15C357.839 272.546 355.891 274.503 353.484 274.503ZM352.415 273.505H353.484C355.332 273.505 356.84 271.997 356.84 270.15C356.84 268.304 355.332 266.796 353.484 266.796H352.415V273.505Z" fill="#4F454D"/>
<path d="M353.345 266.677H351.986V268.194H352.336C354.194 268.194 355.692 269.692 355.692 271.549C355.692 271.908 355.622 272.248 355.512 272.567C356.232 271.948 356.701 271.05 356.701 270.021C356.701 268.164 355.203 266.667 353.345 266.667V266.677Z" fill="#8C8C8C"/>
<path d="M345.974 263.232H342.078V277.059H345.974V263.232Z" fill="#EDEBED"/>
<path d="M346.473 277.558H341.578V262.733H346.473V277.558ZM342.577 276.56H345.474V263.732H342.577V276.56Z" fill="#4F454D"/>
<path d="M349.039 263.233V277.059H349.109C351.217 277.059 352.935 275.352 352.935 273.236V267.046C352.935 264.94 351.227 263.223 349.109 263.223H349.039V263.233Z" fill="#EDEBED"/>
<path d="M349.659 264.042H349.609V266.628H349.679C349.679 266.628 351.397 266.787 352.366 268.874V267.316C352.366 265.509 351.148 264.042 349.649 264.042H349.659Z" fill="white"/>
<path d="M345.393 263.792H342.646V266.258H345.393V263.792Z" fill="white"/>
<path d="M349.11 277.558H348.611L348.541 277.059V262.733H349.11C351.488 262.733 353.436 264.67 353.436 267.056V273.246C353.436 275.621 351.498 277.568 349.11 277.568V277.558ZM349.54 263.762V276.53C351.198 276.3 352.437 274.913 352.437 273.246V267.056C352.437 265.369 351.168 263.971 349.54 263.762Z" fill="#4F454D"/>
<path d="M402.52 259.169C390.014 259.169 379.875 263.811 379.875 276.31H425.156C425.156 263.811 415.017 259.169 402.51 259.169H402.52Z" fill="#EDEBED"/>
<path d="M425.664 276.809H379.385V276.31C379.385 264.939 387.606 258.67 402.53 258.67C417.453 258.67 425.674 264.929 425.674 276.31V276.809H425.664ZM380.384 275.811H424.655C424.336 261.785 410.691 259.668 402.52 259.668C394.348 259.668 380.693 261.785 380.384 275.811Z" fill="#4F454D"/>
<path d="M379.875 276.31H425.156V278.366C425.156 280.812 423.168 282.799 420.72 282.799H384.31C381.863 282.799 379.875 280.812 379.875 278.366V276.31Z" fill="#EDEBED"/>
<path d="M420.72 283.298H384.31C381.583 283.298 379.375 281.082 379.375 278.366V275.811H425.654V278.366C425.654 281.092 423.437 283.298 420.72 283.298ZM380.374 276.809V278.366C380.374 280.533 382.142 282.3 384.31 282.3H420.72C422.887 282.3 424.656 280.533 424.656 278.366V276.809H380.374Z" fill="#4F454D"/>
<path d="M418.532 263.661C417.344 268.393 413.828 272.726 408.703 275.8H424.656C424.536 270.48 422.478 266.406 418.532 263.661Z" fill="#D6D6D6"/>
<path d="M425.635 275.811C425.635 275.981 425.665 276.141 425.665 276.311V275.811H425.635Z" fill="#4F454D"/>
<path d="M405.728 276.809C406.078 276.649 406.437 276.489 406.777 276.31C407.086 276.15 407.396 275.98 407.696 275.811H406.657L406.547 275.87L404.709 276.809H405.718H405.728Z" fill="#4F454D"/>
<path d="M425.147 275.811C425.147 275.98 425.157 276.14 425.157 276.31V276.809H425.657V276.31C425.657 276.14 425.637 275.98 425.627 275.811H425.137H425.147Z" fill="#4F454D"/>
<path d="M408.703 275.811H407.704C407.404 275.981 407.095 276.151 406.785 276.311H425.165C425.165 276.141 425.165 275.981 425.155 275.811H408.713H408.703Z" fill="#4F454D"/>
<path d="M380.485 279.225C380.884 280.992 382.442 282.289 384.31 282.289H420.721C422.888 282.289 424.656 280.522 424.656 278.356V276.799H406.896C402.081 279.245 396.427 280.542 390.524 280.542C387.067 280.542 383.691 280.103 380.475 279.225H380.485Z" fill="#D6D6D6"/>
<path d="M405.727 276.81H425.155V276.31H406.775C406.436 276.49 406.076 276.65 405.727 276.81Z" fill="#4F454D"/>
<path d="M63.4713 150.494C70.0915 150.494 75.4582 145.131 75.4582 138.515C75.4582 131.899 70.0915 126.535 63.4713 126.535C56.8511 126.535 51.4844 131.899 51.4844 138.515C51.4844 145.131 56.8511 150.494 63.4713 150.494Z" fill="#4F454D"/>
<path d="M67.3557 147.964C72.5754 145.82 75.0671 139.852 72.921 134.635C70.7749 129.419 64.8037 126.929 59.584 129.074C54.3643 131.218 51.8726 137.186 54.0187 142.402C56.1648 147.619 62.136 150.109 67.3557 147.964Z" fill="#4F454D"/>
<path d="M29.4495 216.013C35.7717 216.013 40.8969 210.891 40.8969 204.572C40.8969 198.254 35.7717 193.132 29.4495 193.132C23.1272 193.132 18.002 198.254 18.002 204.572C18.002 210.891 23.1272 216.013 29.4495 216.013Z" fill="#4F454D"/>
<path d="M29.4488 214.326C34.8387 214.326 39.2081 209.959 39.2081 204.573C39.2081 199.186 34.8387 194.819 29.4488 194.819C24.0589 194.819 19.6895 199.186 19.6895 204.573C19.6895 209.959 24.0589 214.326 29.4488 214.326Z" fill="#4F454D"/>
<path d="M37.4111 200.359C35.8928 197.514 32.8961 195.567 29.4498 195.567C24.4653 195.567 20.4297 199.601 20.4297 204.582C20.4297 206.938 21.3387 209.064 22.8171 210.672C26.7328 206.359 31.7074 202.815 37.4111 200.359Z" fill="#4F454D"/>
<path d="M33.6754 204.572C33.6754 206.908 31.7874 208.795 29.45 208.795C27.1125 208.795 25.2246 206.908 25.2246 204.572C25.2246 202.236 27.1125 200.35 29.45 200.35C31.7874 200.35 33.6754 202.236 33.6754 204.572Z" fill="#4F454D"/>
<path d="M22.966 277.079L11.4785 200.05L55.4205 135.689L60.3751 139.064L17.7517 201.488L28.8995 276.2L22.966 277.079Z" fill="#4F454D"/>
<path d="M39.6366 283.858L24.1035 203.554L63.3007 136.528L68.4751 139.553L30.4166 204.632L45.5201 282.73L39.6366 283.858Z" fill="#4F454D"/>
<path d="M15.024 213.557C21.6442 213.557 27.0109 208.193 27.0109 201.577C27.0109 194.961 21.6442 189.598 15.024 189.598C8.40383 189.598 3.03711 194.961 3.03711 201.577C3.03711 208.193 8.40383 213.557 15.024 213.557Z" fill="#F2B11D"/>
<path d="M15.0244 214.096C8.11192 214.096 2.49805 208.476 2.49805 201.577C2.49805 194.679 8.12191 189.059 15.0244 189.059C21.9268 189.059 27.5507 194.679 27.5507 201.577C27.5507 208.476 21.9268 214.096 15.0244 214.096ZM15.0244 190.137C8.71126 190.137 3.57687 195.268 3.57687 201.577C3.57687 207.887 8.71126 213.018 15.0244 213.018C21.3375 213.018 26.4719 207.887 26.4719 201.577C26.4719 195.268 21.3375 190.137 15.0244 190.137Z" fill="#4F454D"/>
<path d="M25.1144 203.216C26.0167 197.649 22.2316 192.406 16.6602 191.506C11.0888 190.606 5.84077 194.39 4.93846 199.958C4.03615 205.526 7.82121 210.769 13.3926 211.668C18.9641 212.568 24.2121 208.784 25.1144 203.216Z" fill="#F2B11D"/>
<path d="M15.024 212.249C9.13048 212.249 4.3457 207.457 4.3457 201.577C4.3457 195.697 9.14047 190.905 15.024 190.905C20.9076 190.905 25.7024 195.697 25.7024 201.577C25.7024 207.457 20.9076 212.249 15.024 212.249ZM15.024 191.824C9.64991 191.824 5.2647 196.196 5.2647 201.577C5.2647 206.958 9.63992 211.331 15.024 211.331C20.4082 211.331 24.7834 206.958 24.7834 201.577C24.7834 196.196 20.4082 191.824 15.024 191.824Z" fill="#4F454D"/>
<path d="M23.3646 197.165C21.7763 194.18 18.6397 192.144 15.0237 192.144C9.80937 192.144 5.58398 196.366 5.58398 201.578C5.58398 204.043 6.53295 206.28 8.08126 207.957C12.1768 203.434 17.3911 199.731 23.3646 197.165Z" fill="#FFCA5F"/>
<path d="M19.4499 201.578C19.4499 204.024 17.4721 206 15.0248 206C12.5774 206 10.5996 204.024 10.5996 201.578C10.5996 199.132 12.5774 197.155 15.0248 197.155C17.4721 197.155 19.4499 199.132 19.4499 201.578Z" fill="#4F454D"/>
<path d="M21.1868 271.498H18.7694C12.746 271.498 7.86133 276.38 7.86133 282.4H74.4586V279.574L21.1868 271.498ZM7.87132 289.467C7.87132 295.487 12.756 300.369 18.7794 300.369H21.1968L74.4686 292.293V289.467H7.87132Z" fill="#F2B11D"/>
<path d="M18.7698 300.908C12.4567 300.908 7.32227 295.777 7.32227 289.467V288.928H75.0083V292.762L74.5488 292.832L21.277 300.908H18.7798H18.7698ZM8.42107 290.016C8.70076 295.477 13.2358 299.83 18.7698 299.83H21.1871L73.9195 291.833V290.016H8.42107ZM74.9984 282.948H7.32227V282.409C7.32227 276.1 12.4567 270.969 18.7698 270.969H21.267L75.0083 279.115V282.948H74.9984ZM8.42107 281.86H73.9195V280.043L21.1472 272.047H18.7698C13.2358 272.047 8.70076 276.4 8.42107 281.86Z" fill="#4F454D"/>
<path d="M12.526 297.913C19.1462 297.913 24.5129 292.55 24.5129 285.934C24.5129 279.318 19.1462 273.954 12.526 273.954C5.90578 273.954 0.539062 279.318 0.539062 285.934C0.539062 292.55 5.90578 297.913 12.526 297.913Z" fill="#F2B11D"/>
<path d="M12.5263 298.452C5.61387 298.452 0 292.832 0 285.934C0 279.035 5.62386 273.415 12.5263 273.415C19.4288 273.415 25.0526 279.035 25.0526 285.934C25.0526 292.832 19.4288 298.452 12.5263 298.452ZM12.5263 274.493C6.21321 274.493 1.07882 279.624 1.07882 285.934C1.07882 292.243 6.21321 297.374 12.5263 297.374C18.8394 297.374 23.9738 292.243 23.9738 285.934C23.9738 279.624 18.8394 274.493 12.5263 274.493Z" fill="#4F454D"/>
<path d="M22.6124 287.576C23.5147 282.008 19.7297 276.765 14.1583 275.865C8.58683 274.965 3.33882 278.749 2.43651 284.317C1.5342 289.885 5.31928 295.128 10.8907 296.028C16.4621 296.928 21.7101 293.144 22.6124 287.576Z" fill="#F2B11D"/>
<path d="M12.526 296.605C6.63243 296.605 1.84766 291.814 1.84766 285.934C1.84766 280.054 6.64242 275.262 12.526 275.262C18.4096 275.262 23.2043 280.054 23.2043 285.934C23.2043 291.814 18.4096 296.605 12.526 296.605ZM12.526 276.18C7.15186 276.18 2.76665 280.553 2.76665 285.934C2.76665 291.314 7.14187 295.687 12.526 295.687C17.9101 295.687 22.2853 291.314 22.2853 285.934C22.2853 280.553 17.9101 276.18 12.526 276.18Z" fill="#4F454D"/>
<path d="M20.8665 281.521C19.2783 278.537 16.1417 276.5 12.5256 276.5C7.31132 276.5 3.08594 280.723 3.08594 285.934C3.08594 288.4 4.0349 290.636 5.58321 292.313C9.67874 287.791 14.893 284.087 20.8665 281.521Z" fill="#FFCA5F"/>
<path d="M16.9519 285.934C16.9519 288.38 14.9741 290.357 12.5267 290.357C10.0794 290.357 8.10156 288.38 8.10156 285.934C8.10156 283.488 10.0794 281.512 12.5267 281.512C14.9741 281.512 16.9519 283.488 16.9519 285.934Z" fill="#4F454D"/>
<path d="M59.815 148.168C66.4352 148.168 71.8019 142.805 71.8019 136.189C71.8019 129.572 66.4352 124.209 59.815 124.209C53.1948 124.209 47.8281 129.572 47.8281 136.189C47.8281 142.805 53.1948 148.168 59.815 148.168Z" fill="#F2B11D"/>
<path d="M59.8154 148.707C52.9029 148.707 47.2891 143.087 47.2891 136.189C47.2891 129.29 52.9129 123.67 59.8154 123.67C66.7178 123.67 72.3417 129.29 72.3417 136.189C72.3417 143.087 66.7178 148.707 59.8154 148.707ZM59.8154 124.748C53.5023 124.748 48.3679 129.879 48.3679 136.189C48.3679 142.498 53.5023 147.629 59.8154 147.629C66.1285 147.629 71.2629 142.498 71.2629 136.189C71.2629 129.879 66.1285 124.748 59.8154 124.748Z" fill="#4F454D"/>
<path d="M69.7659 138.505C71.0579 133.015 67.6511 127.519 62.1566 126.231C56.6622 124.942 51.1607 128.348 49.8687 133.839C48.5767 139.329 51.9834 144.825 57.4779 146.113C62.9724 147.402 68.4739 143.996 69.7659 138.505Z" fill="#F2B11D"/>
<path d="M59.8151 146.861C53.9215 146.861 49.1367 142.069 49.1367 136.189C49.1367 130.309 53.9315 125.518 59.8151 125.518C65.6986 125.518 70.4934 130.309 70.4934 136.189C70.4934 142.069 65.6986 146.861 59.8151 146.861ZM59.8151 126.436C54.4409 126.436 50.0557 130.809 50.0557 136.189C50.0557 141.57 54.4309 145.943 59.8151 145.943C65.1992 145.943 69.5744 141.57 69.5744 136.189C69.5744 130.809 65.1992 126.436 59.8151 126.436Z" fill="#4F454D"/>
<path d="M68.3642 97.1746C65.9268 95.2578 60.9223 97.5539 57.1864 102.296C53.4505 107.038 52.3916 112.439 54.829 114.355L66.686 130.787L76.5353 119.397L86.7042 105.371L68.3642 97.1646V97.1746Z" fill="#F2B11D"/>
<path d="M66.6469 131.746L54.4002 114.765C51.7531 112.579 52.762 106.958 56.7277 101.927C60.7033 96.8852 65.9276 94.5891 68.6746 96.6556L87.614 105.131L77.0155 119.746L66.6469 131.746ZM66.2273 97.0849C63.81 97.0849 60.3537 99.2412 57.6567 102.665C54.1905 107.068 53.0617 112.209 55.1994 113.896L55.3092 114.016L66.7268 129.839L76.0865 119.018L85.7959 105.62L67.9954 97.6439C67.5159 97.2646 66.9166 97.0949 66.2173 97.0949L66.2273 97.0849Z" fill="#4F454D"/>
<path d="M80.5432 98.4326C76.5576 95.2979 68.3665 99.0515 62.2432 106.818C56.1299 114.585 54.4018 123.43 58.3874 126.565L76.3978 152.031L93.9186 134.821L109.272 111.101L80.5333 98.4226L80.5432 98.4326Z" fill="#F2B11D"/>
<path d="M76.3169 152.95L57.957 126.974C55.8992 125.297 55.18 122.232 55.9492 118.319C56.6984 114.495 58.7661 110.282 61.7828 106.459C64.7995 102.626 68.4056 99.6206 71.9517 98.0034C75.5877 96.3362 78.7443 96.3063 80.852 97.9235L110.16 110.852L94.3473 135.25L76.3269 152.95H76.3169ZM77.0362 97.9135C75.6876 97.9135 74.1293 98.3029 72.4412 99.0716C69.0649 100.619 65.6186 103.494 62.7118 107.188C59.805 110.871 57.8171 114.905 57.1079 118.548C56.4287 122.052 57.008 124.728 58.7561 126.106L58.876 126.225L76.4868 151.123L93.4682 134.441L108.412 111.361L80.1827 98.8919C79.3436 98.233 78.2848 97.9035 77.0362 97.9035V97.9135Z" fill="#4F454D"/>
<path d="M62.0624 109.923C67.9559 102.436 74.6986 97.584 78.5444 100.609L107.713 114.455L109.321 112.239L80.4023 99.301C76.5565 96.2762 68.6652 99.9 62.7816 107.377C57.5473 114.016 55.6594 121.463 57.9868 125.177C56.908 121.074 58.1267 114.924 62.0624 109.923Z" fill="#FFCA5F"/>
<path d="M85.7351 131.127L61.5315 108.984C60.8822 109.933 60.2929 110.881 59.7734 111.83L81.4697 136.048L85.7351 131.137V131.127Z" fill="#FFCA5F"/>
<path d="M67.3944 102.485C65.8261 103.803 64.2878 105.38 62.8594 107.177L91.2983 131.786L98.8401 119.986C98.8401 119.986 76.6443 107.307 67.3844 102.485H67.3944Z" fill="#FFCA5F"/>
<path d="M104.857 141.067C113.905 129.576 116.46 116.502 110.564 111.865C104.667 107.228 92.553 112.784 83.5053 124.275C74.4576 135.765 71.9028 148.839 77.799 153.476C83.6952 158.113 95.8096 152.557 104.857 141.067Z" fill="#FFD88A"/>
<path d="M82.9803 155.715C80.8127 155.715 78.9348 155.126 77.4264 153.948C74.3897 151.563 73.3409 147.08 74.4597 141.34C75.5585 135.729 78.5951 129.54 83.0303 123.92C87.4655 118.289 92.7697 113.877 97.964 111.501C103.288 109.065 107.893 109.035 110.93 111.421C117.073 116.253 114.566 129.73 105.326 141.46C100.891 147.09 95.5866 151.503 90.3923 153.879C87.7052 155.116 85.1879 155.725 82.9803 155.725V155.715ZM105.376 110.822C103.338 110.822 101.001 111.401 98.4634 112.569C93.4389 114.875 88.2846 119.168 83.9693 124.648C79.654 130.129 76.6872 136.139 75.6284 141.57C74.5995 146.861 75.4985 150.924 78.1656 153.02C80.8327 155.116 85.0081 155.037 89.9028 152.79C94.9273 150.484 100.082 146.192 104.397 140.711C113.227 129.5 115.834 116.772 110.201 112.339C108.912 111.331 107.274 110.822 105.376 110.822Z" fill="#4F454D"/>
<path d="M110.57 111.86C108.582 110.293 105.875 109.893 102.829 110.482C102.899 110.532 102.969 110.572 103.028 110.622C108.003 114.535 105.855 125.567 98.2137 135.27C90.5721 144.974 80.3533 149.656 75.3787 145.742C75.109 145.533 74.8692 145.283 74.6395 145.034C74.5396 148.697 75.5585 151.702 77.806 153.469C83.6996 158.111 95.8164 152.551 104.866 141.06C113.917 129.57 116.474 116.492 110.57 111.86Z" fill="#D89612"/>
<path d="M82.9798 155.715C80.8122 155.715 78.9342 155.126 77.4259 153.948C75.0984 152.121 73.9197 149.037 74.0396 145.034L74.0795 143.546L75.0684 144.644C75.3182 144.924 75.5279 145.123 75.7377 145.283C77.9653 147.03 81.4415 146.96 85.547 145.083C89.7724 143.147 94.1076 139.533 97.7437 134.921C101.38 130.309 103.877 125.247 104.766 120.685C105.635 116.262 104.886 112.858 102.658 111.111L101.37 110.183L102.708 109.923C106.025 109.274 108.872 109.793 110.929 111.411C117.073 116.243 114.565 129.72 105.325 141.45C100.89 147.08 95.586 151.493 90.3917 153.869C87.7046 155.106 85.1874 155.715 82.9798 155.715ZM75.2383 146.391C75.3981 149.346 76.397 151.622 78.1651 153.01C80.8321 155.106 84.9976 155.027 89.9022 152.78C94.9268 150.474 100.081 146.182 104.396 140.701C113.227 129.49 115.834 116.762 110.2 112.329C108.672 111.131 106.604 110.632 104.177 110.892C106.164 113.048 106.784 116.552 105.935 120.905C105.006 125.647 102.429 130.888 98.6826 135.649C94.9367 140.411 90.4416 144.145 86.0464 146.162C81.6612 148.178 77.8354 148.258 75.2482 146.391H75.2383Z" fill="#4F454D"/>
<path d="M90.5302 117.071C90.5302 117.071 90.4602 117.071 90.4303 117.071C88.0329 119.087 85.6854 121.503 83.5078 124.258C81.6498 126.614 80.0816 129.04 78.793 131.446C79.9117 136.907 84.7465 141.02 90.5401 141.02C97.1629 141.02 102.527 135.659 102.527 129.04C102.527 122.421 97.1629 117.061 90.5401 117.061L90.5302 117.071Z" fill="white"/>
<path d="M90.5306 141.629C84.5771 141.629 79.3927 137.406 78.204 131.576L78.1641 131.366L78.264 131.176C79.6225 128.641 81.2307 126.195 83.0387 123.899C85.1864 121.173 87.5438 118.728 90.0511 116.621L90.2109 116.481H90.5306C97.463 116.481 103.107 122.112 103.107 129.05C103.107 135.988 97.463 141.619 90.5306 141.619V141.629ZM79.4127 131.556C80.5714 136.717 85.2064 140.451 90.5306 140.451C96.8137 140.451 101.928 135.339 101.928 129.06C101.928 122.781 96.8836 117.739 90.6504 117.669C88.263 119.696 86.0155 122.032 83.9677 124.638C82.2496 126.824 80.7113 129.15 79.4127 131.556Z" fill="#4F454D"/>
<path opacity="0.4" d="M258.749 1.02832L184.5 75.2321L265.561 156.234L343.426 78.4067L258.749 1.02832Z" fill="url(#paint1_linear_43_9663)"/>
<path d="M255.972 0.499023H187.507C185.559 0.499023 183.98 2.07677 183.98 4.02303V72.4466C183.98 74.3929 185.559 75.9706 187.507 75.9706H255.972C257.919 75.9706 259.498 74.3929 259.498 72.4466V4.02303C259.498 2.07677 257.919 0.499023 255.972 0.499023Z" fill="#C4068E"/>
<path d="M255.971 76.4699H187.506C185.289 76.4699 183.48 74.663 183.48 72.4468V4.02316C183.48 1.80693 185.289 0 187.506 0H255.971C258.189 0 259.997 1.80693 259.997 4.02316V72.4468C259.997 74.663 258.189 76.4699 255.971 76.4699ZM187.506 0.998302C185.838 0.998302 184.479 2.35599 184.479 4.02316V72.4468C184.479 74.1139 185.838 75.4716 187.506 75.4716H255.971C257.639 75.4716 258.998 74.1139 258.998 72.4468V4.02316C258.998 2.35599 257.639 0.998302 255.971 0.998302H187.506Z" fill="#4F454D"/>
<path d="M254.354 7.33691H189.125V69.1218H254.354V7.33691Z" fill="#4F454D"/>
<path d="M254.853 69.6311H188.625V6.83789H254.853V69.6211V69.6311ZM189.624 68.6328H253.854V7.83619H189.624V68.6228V68.6328Z" fill="#4F454D"/>
<path d="M216.564 14.7546H216.524L213.817 16.0424L213.268 13.5566L217.013 11.8096H219.76V25.9655H216.554V14.7546H216.564Z" fill="#EAF467"/>
<path d="M221.809 25.9658V23.9592L223.637 22.3021C226.733 19.5368 228.232 17.9495 228.282 16.2923C228.282 15.1342 227.582 14.2258 225.954 14.2258C224.735 14.2258 223.667 14.8348 222.927 15.4038L221.988 13.0278C223.057 12.2192 224.715 11.5703 226.633 11.5703C229.84 11.5703 231.608 13.4471 231.608 16.0128C231.608 18.3887 229.89 20.2855 227.832 22.1124L226.523 23.2005V23.2405H231.868V25.9658H221.819H221.809Z" fill="#EAF467"/>
<path d="M224.055 57.7314C223.826 57.7214 223.586 57.7314 223.266 57.7614C221.458 57.9111 220.659 58.8296 220.429 59.8478H220.469C220.899 59.4086 221.498 59.149 222.317 59.149C223.776 59.149 225.004 60.1773 225.004 61.9842C225.004 63.7911 223.676 65.1189 221.798 65.1189C219.49 65.1189 218.352 63.3918 218.352 61.3253C218.352 59.6981 218.951 58.3304 219.89 57.4619C220.759 56.6732 221.878 56.244 223.246 56.1841C223.616 56.1541 223.866 56.1541 224.065 56.1741V57.7414L224.055 57.7314ZM222.947 62.084C222.947 61.2854 222.517 60.5866 221.648 60.5866C221.099 60.5866 220.649 60.916 220.449 61.3652C220.399 61.4751 220.369 61.6348 220.369 61.8744C220.409 62.7928 220.849 63.6214 221.768 63.6214C222.487 63.6214 222.947 62.9625 222.947 62.084Z" fill="#17CEC9"/>
<path d="M195.806 42.4282C196.166 42.4682 196.486 42.4682 197.055 42.4282C197.924 42.3683 198.813 42.1287 199.472 41.6795C200.261 41.1304 200.791 40.3418 201.021 39.4134L200.961 39.3934C200.411 39.9624 199.622 40.2819 198.513 40.2819C196.436 40.2819 194.688 38.8344 194.688 36.4584C194.688 34.0824 196.615 32.0459 199.302 32.0459C202.449 32.0459 203.937 34.4618 203.937 37.3269C203.937 39.8726 203.128 41.7394 201.79 42.9573C200.621 44.0155 199.023 44.5946 197.115 44.6744C196.625 44.7144 196.136 44.6944 195.816 44.6744V42.4282H195.806ZM197.544 36.2887C197.544 37.3469 198.114 38.2454 199.282 38.2454C200.052 38.2454 200.601 37.866 200.871 37.4367C200.961 37.267 201.021 37.0773 201.021 36.718C201.021 35.4202 200.531 34.1323 199.233 34.1323C198.254 34.1323 197.534 35.0009 197.554 36.2787L197.544 36.2887Z" fill="#EF7E20"/>
<path d="M239.499 44.5746C240.238 44.954 241.947 45.6728 243.645 45.6728C245.812 45.6728 246.911 44.6345 246.911 43.2868C246.911 41.5298 245.153 40.7312 243.315 40.7312H241.617V37.7363H243.235C244.634 37.7063 246.422 37.1872 246.422 35.6798C246.422 34.6116 245.543 33.813 243.785 33.813C242.326 33.813 240.788 34.4419 240.049 34.8811L239.2 31.8663C240.268 31.1774 242.416 30.5186 244.714 30.5186C248.529 30.5186 250.647 32.5251 250.647 34.961C250.647 36.8578 249.578 38.3353 247.381 39.1039V39.1638C249.518 39.5432 251.256 41.1704 251.256 43.4965C251.256 46.6511 248.479 48.9572 243.954 48.9572C241.647 48.9572 239.699 48.3582 238.66 47.6993L239.509 44.5746H239.499Z" fill="#F2B11D"/>
<path d="M241.328 17.9388C240.589 17.2001 239.39 17.2001 238.651 17.9388L220.031 36.7468L221.869 38.5837H220.031V55.3652C220.031 56.4134 220.88 57.2619 221.929 57.2619C222.978 57.2619 223.827 56.4134 223.827 55.3652V38.5837H223.547L241.328 20.6243C242.067 19.8855 242.067 18.6875 241.328 17.9388Z" fill="#4B8BE8"/>
<path d="M221.929 57.7514C220.611 57.7514 219.532 56.6733 219.532 55.3555V38.0749H220.661L219.322 36.7372L238.292 17.5798C239.231 16.6414 240.749 16.6414 241.678 17.5798C242.607 18.5182 242.607 20.0356 241.678 20.964L224.317 38.4942V55.3455C224.317 56.6633 223.238 57.7415 221.919 57.7415L221.929 57.7514ZM220.531 39.0832V55.3655C220.531 56.1342 221.16 56.7631 221.929 56.7631C222.699 56.7631 223.328 56.1342 223.328 55.3655V39.0832H220.531ZM220.741 36.7472L222.719 38.7238L240.979 20.2752C241.528 19.7261 241.528 18.8476 240.979 18.2986C240.449 17.7695 239.53 17.7695 239.001 18.2986L220.731 36.7472H220.741Z" fill="#4F454D"/>
<path d="M225.155 37.8851C225.155 39.6321 223.736 41.0397 221.998 41.0397C220.26 41.0397 218.842 39.6221 218.842 37.8851C218.842 36.1481 220.26 34.7305 221.998 34.7305C223.736 34.7305 225.155 36.1481 225.155 37.8851Z" fill="#C4068E"/>
<path d="M221.999 41.4992C220.001 41.4992 218.383 39.872 218.383 37.8853C218.383 35.8987 220.001 34.2715 221.999 34.2715C223.997 34.2715 225.615 35.8887 225.615 37.8853C225.615 39.8819 223.987 41.4992 221.999 41.4992ZM221.999 35.1799C220.51 35.1799 219.292 36.3879 219.292 37.8853C219.292 39.3828 220.501 40.5907 221.999 40.5907C223.497 40.5907 224.706 39.3828 224.706 37.8853C224.706 36.3879 223.497 35.1799 221.999 35.1799Z" fill="#4F454D"/>
<g opacity="0.3">
<path d="M254.202 43.3661V32.1152L217.303 68.9825H228.57L254.202 43.3661Z" fill="white"/>
<path d="M254.203 7.4873H248.778L189.273 66.9561V68.9827H201.39L254.203 16.2025V7.4873Z" fill="white"/>
<path d="M207.603 7.4873L189.273 25.8061V60.6469L242.465 7.4873H207.603Z" fill="white"/>
</g>
<path d="M252.534 8.52521H250.447C250.177 8.52521 249.957 8.30558 249.957 8.03604C249.957 7.7665 250.177 7.54688 250.447 7.54688H252.534C252.804 7.54688 253.024 7.7665 253.024 8.03604C253.024 8.30558 252.804 8.52521 252.534 8.52521Z" fill="#DDD3DB"/>
<path d="M189.853 68.9225C189.583 68.9225 189.363 68.7029 189.363 68.4333V8.03604C189.363 7.7665 189.583 7.54688 189.853 7.54688H246.88C247.15 7.54688 247.37 7.7665 247.37 8.03604C247.37 8.30558 247.15 8.52521 246.88 8.52521H190.342V68.4333C190.342 68.7029 190.122 68.9225 189.853 68.9225Z" fill="#DDD3DB"/>
</g>
<defs>
<linearGradient id="paint0_linear_43_9663" x1="216.134" y1="196.166" x2="248.062" y2="365.884" gradientUnits="userSpaceOnUse">
<stop stop-opacity="0.95"/>
<stop offset="1" stop-opacity="0"/>
</linearGradient>
<linearGradient id="paint1_linear_43_9663" x1="153.504" y1="-33.5828" x2="278.641" y2="91.6304" gradientUnits="userSpaceOnUse">
<stop stop-opacity="0.95"/>
<stop offset="1" stop-opacity="0"/>
</linearGradient>
<clipPath id="clip0_43_9663">
<rect width="467" height="388" fill="white"/>
</clipPath>
</defs>
</svg>
